<?xml version="1.0" encoding="UTF-8" standalone="no"?>
<svg
   xmlns:dc="http://purl.org/dc/elements/1.1/"
   xmlns:cc="http://creativecommons.org/ns#"
   xmlns:rdf="http://www.w3.org/1999/02/22-rdf-syntax-ns#"
   xmlns:svg="http://www.w3.org/2000/svg"
   xmlns="http://www.w3.org/2000/svg"
   version="1.1"
   viewBox="0 0 64 64"
   color="black"
   id="ontohub-oor_logo">
  <metadata
     id="ontohub-metadata">
    <rdf:RDF>
      <cc:Work
         rdf:about="">
        <dc:format>image/svg+xml</dc:format>
        <dc:type
           rdf:resource="http://purl.org/dc/dcmitype/StillImage" />
        <dc:title></dc:title>
      </cc:Work>
    </rdf:RDF>
  </metadata>
  <g
    id="image"
    >
    <!-- Background -->
    <rect id="background" x="0" y="0" width="64" height="64" fill="black" rx="16" />
    <!-- Nodes -->
      <!-- Top -->
      <circle id="top-k" cx="32" cy="6.5" r="4" stroke="white" stroke-width="0" fill="white" />
      <circle id="top-j" cx="32" cy="40.5" r="4" stroke="white" stroke-width="0" fill="white" />
      <circle id="top-h" cx="12" cy="23.5" r="4" stroke="white" stroke-width="0" fill="white" />
      <circle id="top-l" cx="52" cy="23.5" r="4" stroke="white" stroke-width="0" fill="white" />
      <!-- Bottom -->
      <circle id="bottom-k" cx="32" cy="23.5" r="4" stroke="white" stroke-width="0" fill="white" />
      <circle id="bottom-j" cx="32" cy="57.5" r="4" stroke="white" stroke-width="0" fill="white" />
      <circle id="bottom-h" cx="12" cy="40.5" r="4" stroke="white" stroke-width="0" fill="white" />
      <circle id="bottom-l" cx="52" cy="40.5" r="4" stroke="white" stroke-width="0" fill="white" />
    <!-- Edges -->
      <!-- Top-Down -->
      <line id="k-k" x1="32" y1="6.5" x2="32" y2="23.5" stroke="white" stroke-width="1.5" />
      <line id="j-j" x1="32" y1="40.5" x2="32" y2="57.5" stroke="white" stroke-width="1.5" />
      <line id="h-h" x1="12" y1="23.5" x2="12" y2="40.5" stroke="white" stroke-width="1.5" />
      <line id="l-l" x1="52" y1="23.5" x2="52" y2="40.5" stroke="white" stroke-width="1.5" />
      <!-- Bottom Diamond -->
      <line id="k-l" x1="32" y1="23.5" x2="52" y2="40.5" stroke="white" stroke-width="1.5" />
      <line id="l-j" x1="52" y1="40.5" x2="32" y2="57.5" stroke="white" stroke-width="1.5" />
      <line id="j-h" x1="32" y1="57.5" x2="12" y2="40.5" stroke="white" stroke-width="1.5" />
      <line id="h-k" x1="12" y1="40.5" x2="32" y2="23.5" stroke="white" stroke-width="1.5" />
      <!-- Top Diamond -->
      <line id="k-l" x1="32" y1="6.5" x2="52" y2="23.5" stroke="white" stroke-width="1.5" />
      <line id="l-j" x1="52" y1="23.5" x2="32" y2="40.5" stroke="white" stroke-width="1.5" />
      <line id="j-h" x1="32" y1="40.5" x2="12" y2="23.5" stroke="white" stroke-width="1.5" />
      <line id="h-k" x1="12" y1="23.5" x2="32" y2="6.5" stroke="white" stroke-width="1.5" />
    </g>
</svg>
